<mxfile host="app.diagrams.net" agent="Mozilla/5.0 (X11; Ubuntu; Linux x86_64; rv:141.0) Gecko/20100101 Firefox/141.0" version="28.0.7">
  <diagram name="PÃ¡gina-1" id="1_IcvphOG9MH5CT4vIaf">
    <mxGraphModel dx="630" dy="671" grid="1" gridSize="10" guides="1" tooltips="1" connect="1" arrows="1" fold="1" page="1" pageScale="1" pageWidth="827" pageHeight="1169" math="0" shadow="0">
      <root>
        <mxCell id="0" />
        <mxCell id="1" parent="0" />
        <mxCell id="4kvXDWAPBxVA_NMJ1HBV-61" style="edgeStyle=orthogonalEdgeStyle;rounded=0;orthogonalLoop=1;jettySize=auto;html=1;entryX=0;entryY=0.5;entryDx=0;entryDy=0;fillColor=#1ba1e2;strokeColor=#006EAF;" parent="1" source="4kvXDWAPBxVA_NMJ1HBV-2" target="4kvXDWAPBxVA_NMJ1HBV-9" edge="1">
          <mxGeometry relative="1" as="geometry" />
        </mxCell>
        <mxCell id="4kvXDWAPBxVA_NMJ1HBV-62" style="edgeStyle=orthogonalEdgeStyle;rounded=0;orthogonalLoop=1;jettySize=auto;html=1;entryX=0;entryY=0.5;entryDx=0;entryDy=0;jumpStyle=arc;fillColor=#1ba1e2;strokeColor=#006EAF;" parent="1" source="4kvXDWAPBxVA_NMJ1HBV-2" target="4kvXDWAPBxVA_NMJ1HBV-17" edge="1">
          <mxGeometry relative="1" as="geometry">
            <Array as="points">
              <mxPoint x="100" y="370" />
              <mxPoint x="370" y="370" />
              <mxPoint x="370" y="540" />
            </Array>
          </mxGeometry>
        </mxCell>
        <mxCell id="4kvXDWAPBxVA_NMJ1HBV-63" style="edgeStyle=orthogonalEdgeStyle;rounded=0;orthogonalLoop=1;jettySize=auto;html=1;entryX=0;entryY=0.5;entryDx=0;entryDy=0;jumpStyle=arc;fillColor=#1ba1e2;strokeColor=#006EAF;" parent="1" source="4kvXDWAPBxVA_NMJ1HBV-2" target="4kvXDWAPBxVA_NMJ1HBV-10" edge="1">
          <mxGeometry relative="1" as="geometry">
            <Array as="points">
              <mxPoint x="200" y="340" />
              <mxPoint x="200" y="430" />
            </Array>
          </mxGeometry>
        </mxCell>
        <mxCell id="4kvXDWAPBxVA_NMJ1HBV-64" style="edgeStyle=orthogonalEdgeStyle;rounded=0;orthogonalLoop=1;jettySize=auto;html=1;entryX=0;entryY=0.5;entryDx=0;entryDy=0;fillColor=#1ba1e2;strokeColor=#006EAF;" parent="1" source="4kvXDWAPBxVA_NMJ1HBV-4" target="4kvXDWAPBxVA_NMJ1HBV-11" edge="1">
          <mxGeometry relative="1" as="geometry" />
        </mxCell>
        <mxCell id="4kvXDWAPBxVA_NMJ1HBV-65" style="edgeStyle=orthogonalEdgeStyle;rounded=0;orthogonalLoop=1;jettySize=auto;html=1;entryX=0;entryY=0.5;entryDx=0;entryDy=0;fillColor=#1ba1e2;strokeColor=#006EAF;" parent="1" source="4kvXDWAPBxVA_NMJ1HBV-6" target="4kvXDWAPBxVA_NMJ1HBV-13" edge="1">
          <mxGeometry relative="1" as="geometry" />
        </mxCell>
        <mxCell id="4kvXDWAPBxVA_NMJ1HBV-66" style="edgeStyle=orthogonalEdgeStyle;rounded=0;orthogonalLoop=1;jettySize=auto;html=1;entryX=0;entryY=0.5;entryDx=0;entryDy=0;fillColor=#1ba1e2;strokeColor=#006EAF;" parent="1" source="4kvXDWAPBxVA_NMJ1HBV-7" target="4kvXDWAPBxVA_NMJ1HBV-14" edge="1">
          <mxGeometry relative="1" as="geometry" />
        </mxCell>
        <mxCell id="4kvXDWAPBxVA_NMJ1HBV-67" style="edgeStyle=orthogonalEdgeStyle;rounded=0;orthogonalLoop=1;jettySize=auto;html=1;entryX=0;entryY=0.5;entryDx=0;entryDy=0;fillColor=#008a00;strokeColor=#005700;" parent="1" source="4kvXDWAPBxVA_NMJ1HBV-9" target="4kvXDWAPBxVA_NMJ1HBV-22" edge="1">
          <mxGeometry relative="1" as="geometry" />
        </mxCell>
        <mxCell id="4kvXDWAPBxVA_NMJ1HBV-68" style="edgeStyle=orthogonalEdgeStyle;rounded=0;orthogonalLoop=1;jettySize=auto;html=1;entryX=0;entryY=0.5;entryDx=0;entryDy=0;fillColor=#008a00;strokeColor=#005700;jumpStyle=arc;" parent="1" source="4kvXDWAPBxVA_NMJ1HBV-9" target="4kvXDWAPBxVA_NMJ1HBV-25" edge="1">
          <mxGeometry relative="1" as="geometry">
            <Array as="points">
              <mxPoint x="300" y="380" />
              <mxPoint x="580" y="380" />
              <mxPoint x="580" y="540" />
            </Array>
          </mxGeometry>
        </mxCell>
        <mxCell id="4kvXDWAPBxVA_NMJ1HBV-69" style="edgeStyle=orthogonalEdgeStyle;rounded=0;orthogonalLoop=1;jettySize=auto;html=1;entryX=0;entryY=0.5;entryDx=0;entryDy=0;fillColor=#008a00;strokeColor=#005700;jumpStyle=arc;" parent="1" source="4kvXDWAPBxVA_NMJ1HBV-9" target="4kvXDWAPBxVA_NMJ1HBV-21" edge="1">
          <mxGeometry relative="1" as="geometry">
            <Array as="points">
              <mxPoint x="380" y="340" />
              <mxPoint x="380" y="980" />
            </Array>
          </mxGeometry>
        </mxCell>
        <mxCell id="4kvXDWAPBxVA_NMJ1HBV-70" style="edgeStyle=orthogonalEdgeStyle;rounded=0;orthogonalLoop=1;jettySize=auto;html=1;entryX=0;entryY=0.5;entryDx=0;entryDy=0;fillColor=#008a00;strokeColor=#005700;jumpStyle=arc;" parent="1" source="4kvXDWAPBxVA_NMJ1HBV-10" target="4kvXDWAPBxVA_NMJ1HBV-16" edge="1">
          <mxGeometry relative="1" as="geometry" />
        </mxCell>
        <mxCell id="4kvXDWAPBxVA_NMJ1HBV-71" style="edgeStyle=orthogonalEdgeStyle;rounded=0;orthogonalLoop=1;jettySize=auto;html=1;entryX=0;entryY=0.5;entryDx=0;entryDy=0;fillColor=#008a00;strokeColor=#005700;jumpStyle=arc;" parent="1" source="4kvXDWAPBxVA_NMJ1HBV-13" target="4kvXDWAPBxVA_NMJ1HBV-19" edge="1">
          <mxGeometry relative="1" as="geometry" />
        </mxCell>
        <mxCell id="4kvXDWAPBxVA_NMJ1HBV-72" style="edgeStyle=orthogonalEdgeStyle;rounded=0;orthogonalLoop=1;jettySize=auto;html=1;entryX=0;entryY=0.5;entryDx=0;entryDy=0;fillColor=#008a00;strokeColor=#005700;jumpStyle=arc;" parent="1" target="4kvXDWAPBxVA_NMJ1HBV-36" edge="1">
          <mxGeometry relative="1" as="geometry">
            <Array as="points">
              <mxPoint x="300" y="800" />
              <mxPoint x="580" y="800" />
              <mxPoint x="580" y="1050" />
              <mxPoint x="800" y="1050" />
              <mxPoint x="800" y="980" />
            </Array>
            <mxPoint x="299.99999999999994" y="780" as="sourcePoint" />
            <mxPoint x="840" y="970" as="targetPoint" />
          </mxGeometry>
        </mxCell>
        <mxCell id="4kvXDWAPBxVA_NMJ1HBV-73" style="edgeStyle=orthogonalEdgeStyle;rounded=0;orthogonalLoop=1;jettySize=auto;html=1;fillColor=#008a00;strokeColor=#005700;jumpStyle=arc;" parent="1" source="4kvXDWAPBxVA_NMJ1HBV-14" target="4kvXDWAPBxVA_NMJ1HBV-20" edge="1">
          <mxGeometry relative="1" as="geometry" />
        </mxCell>
        <mxCell id="XGP6w65IYmNDbE1TMmtb-1" style="edgeStyle=orthogonalEdgeStyle;rounded=0;orthogonalLoop=1;jettySize=auto;html=1;entryX=0.5;entryY=1;entryDx=0;entryDy=0;fillColor=#008a00;strokeColor=#005700;jumpStyle=arc;" parent="1" source="4kvXDWAPBxVA_NMJ1HBV-14" target="4kvXDWAPBxVA_NMJ1HBV-28" edge="1">
          <mxGeometry relative="1" as="geometry">
            <Array as="points">
              <mxPoint x="300" y="920" />
              <mxPoint x="700" y="920" />
            </Array>
          </mxGeometry>
        </mxCell>
        <mxCell id="4kvXDWAPBxVA_NMJ1HBV-75" style="edgeStyle=orthogonalEdgeStyle;rounded=0;orthogonalLoop=1;jettySize=auto;html=1;entryX=0;entryY=0.5;entryDx=0;entryDy=0;fillColor=#e51400;strokeColor=#B20000;jumpStyle=arc;" parent="1" source="4kvXDWAPBxVA_NMJ1HBV-16" target="4kvXDWAPBxVA_NMJ1HBV-24" edge="1">
          <mxGeometry relative="1" as="geometry" />
        </mxCell>
        <mxCell id="4kvXDWAPBxVA_NMJ1HBV-76" style="edgeStyle=orthogonalEdgeStyle;rounded=0;orthogonalLoop=1;jettySize=auto;html=1;entryX=0.5;entryY=1;entryDx=0;entryDy=0;fillColor=#e51400;strokeColor=#B20000;jumpStyle=arc;" parent="1" source="4kvXDWAPBxVA_NMJ1HBV-17" target="4kvXDWAPBxVA_NMJ1HBV-31" edge="1">
          <mxGeometry relative="1" as="geometry">
            <Array as="points">
              <mxPoint x="500" y="500" />
              <mxPoint x="900" y="500" />
            </Array>
          </mxGeometry>
        </mxCell>
        <mxCell id="4kvXDWAPBxVA_NMJ1HBV-77" style="edgeStyle=orthogonalEdgeStyle;rounded=0;orthogonalLoop=1;jettySize=auto;html=1;entryX=0;entryY=0.75;entryDx=0;entryDy=0;fillColor=#e51400;strokeColor=#B20000;jumpStyle=arc;" parent="1" source="4kvXDWAPBxVA_NMJ1HBV-17" target="4kvXDWAPBxVA_NMJ1HBV-32" edge="1">
          <mxGeometry relative="1" as="geometry">
            <Array as="points">
              <mxPoint x="500" y="590" />
              <mxPoint x="800" y="590" />
              <mxPoint x="800" y="555" />
            </Array>
          </mxGeometry>
        </mxCell>
        <mxCell id="4kvXDWAPBxVA_NMJ1HBV-78" style="edgeStyle=orthogonalEdgeStyle;rounded=0;orthogonalLoop=1;jettySize=auto;html=1;entryX=0;entryY=0.5;entryDx=0;entryDy=0;fillColor=#e51400;strokeColor=#B20000;jumpStyle=arc;" parent="1" source="4kvXDWAPBxVA_NMJ1HBV-18" target="4kvXDWAPBxVA_NMJ1HBV-33" edge="1">
          <mxGeometry relative="1" as="geometry">
            <Array as="points">
              <mxPoint x="500" y="610" />
              <mxPoint x="800" y="610" />
              <mxPoint x="800" y="650" />
            </Array>
          </mxGeometry>
        </mxCell>
        <mxCell id="4kvXDWAPBxVA_NMJ1HBV-79" style="edgeStyle=orthogonalEdgeStyle;rounded=0;orthogonalLoop=1;jettySize=auto;html=1;entryX=0;entryY=0.5;entryDx=0;entryDy=0;fillColor=#e51400;strokeColor=#B20000;jumpStyle=arc;" parent="1" source="4kvXDWAPBxVA_NMJ1HBV-20" target="4kvXDWAPBxVA_NMJ1HBV-27" edge="1">
          <mxGeometry relative="1" as="geometry">
            <Array as="points">
              <mxPoint x="600" y="860" />
              <mxPoint x="600" y="760" />
            </Array>
          </mxGeometry>
        </mxCell>
        <mxCell id="4kvXDWAPBxVA_NMJ1HBV-80" style="edgeStyle=orthogonalEdgeStyle;rounded=0;orthogonalLoop=1;jettySize=auto;html=1;entryX=0;entryY=0.5;entryDx=0;entryDy=0;jumpStyle=arc;fillColor=#e51400;strokeColor=#B20000;" parent="1" source="4kvXDWAPBxVA_NMJ1HBV-20" target="4kvXDWAPBxVA_NMJ1HBV-26" edge="1">
          <mxGeometry relative="1" as="geometry">
            <Array as="points">
              <mxPoint x="610" y="880" />
              <mxPoint x="610" y="650" />
            </Array>
          </mxGeometry>
        </mxCell>
        <mxCell id="4kvXDWAPBxVA_NMJ1HBV-81" style="edgeStyle=orthogonalEdgeStyle;rounded=0;orthogonalLoop=1;jettySize=auto;html=1;entryX=0;entryY=0.5;entryDx=0;entryDy=0;jumpStyle=arc;fillColor=#e51400;strokeColor=#B20000;" parent="1" source="4kvXDWAPBxVA_NMJ1HBV-21" target="4kvXDWAPBxVA_NMJ1HBV-42" edge="1">
          <mxGeometry relative="1" as="geometry">
            <Array as="points">
              <mxPoint x="500" y="1030" />
              <mxPoint x="770" y="1030" />
              <mxPoint x="770" y="920" />
              <mxPoint x="1000" y="920" />
              <mxPoint x="1000" y="870" />
            </Array>
          </mxGeometry>
        </mxCell>
        <mxCell id="4kvXDWAPBxVA_NMJ1HBV-74" style="edgeStyle=orthogonalEdgeStyle;rounded=0;orthogonalLoop=1;jettySize=auto;html=1;entryX=0;entryY=0.5;entryDx=0;entryDy=0;fillColor=#e51400;strokeColor=#B20000;" parent="1" source="4kvXDWAPBxVA_NMJ1HBV-22" target="4kvXDWAPBxVA_NMJ1HBV-23" edge="1">
          <mxGeometry relative="1" as="geometry" />
        </mxCell>
        <mxCell id="4kvXDWAPBxVA_NMJ1HBV-92" style="edgeStyle=orthogonalEdgeStyle;rounded=0;orthogonalLoop=1;jettySize=auto;html=1;entryX=0.5;entryY=0;entryDx=0;entryDy=0;fillColor=#647687;strokeColor=#314354;jumpStyle=arc;" parent="1" source="4kvXDWAPBxVA_NMJ1HBV-23" target="4kvXDWAPBxVA_NMJ1HBV-38" edge="1">
          <mxGeometry relative="1" as="geometry">
            <Array as="points">
              <mxPoint x="700" y="370" />
              <mxPoint x="1100" y="370" />
            </Array>
          </mxGeometry>
        </mxCell>
        <mxCell id="4kvXDWAPBxVA_NMJ1HBV-83" style="edgeStyle=orthogonalEdgeStyle;rounded=0;orthogonalLoop=1;jettySize=auto;html=1;entryX=0;entryY=0.5;entryDx=0;entryDy=0;fillColor=#647687;strokeColor=#314354;jumpStyle=arc;" parent="1" source="4kvXDWAPBxVA_NMJ1HBV-24" target="4kvXDWAPBxVA_NMJ1HBV-31" edge="1">
          <mxGeometry relative="1" as="geometry" />
        </mxCell>
        <mxCell id="4kvXDWAPBxVA_NMJ1HBV-84" style="edgeStyle=orthogonalEdgeStyle;rounded=0;orthogonalLoop=1;jettySize=auto;html=1;entryX=0;entryY=0.5;entryDx=0;entryDy=0;jumpStyle=arc;fillColor=#647687;strokeColor=#314354;" parent="1" source="4kvXDWAPBxVA_NMJ1HBV-24" target="4kvXDWAPBxVA_NMJ1HBV-40" edge="1">
          <mxGeometry relative="1" as="geometry">
            <Array as="points">
              <mxPoint x="700" y="480" />
              <mxPoint x="970" y="480" />
              <mxPoint x="970" y="650" />
            </Array>
          </mxGeometry>
        </mxCell>
        <mxCell id="4kvXDWAPBxVA_NMJ1HBV-85" style="edgeStyle=orthogonalEdgeStyle;rounded=0;orthogonalLoop=1;jettySize=auto;html=1;entryX=0;entryY=0.25;entryDx=0;entryDy=0;jumpStyle=arc;fillColor=#647687;strokeColor=#314354;" parent="1" source="4kvXDWAPBxVA_NMJ1HBV-24" target="4kvXDWAPBxVA_NMJ1HBV-32" edge="1">
          <mxGeometry relative="1" as="geometry">
            <Array as="points">
              <mxPoint x="800" y="450" />
              <mxPoint x="800" y="525" />
            </Array>
          </mxGeometry>
        </mxCell>
        <mxCell id="4kvXDWAPBxVA_NMJ1HBV-86" style="edgeStyle=orthogonalEdgeStyle;rounded=0;orthogonalLoop=1;jettySize=auto;html=1;entryX=0;entryY=0.5;entryDx=0;entryDy=0;fillColor=#647687;strokeColor=#314354;jumpStyle=arc;" parent="1" source="4kvXDWAPBxVA_NMJ1HBV-27" target="4kvXDWAPBxVA_NMJ1HBV-35" edge="1">
          <mxGeometry relative="1" as="geometry" />
        </mxCell>
        <mxCell id="4kvXDWAPBxVA_NMJ1HBV-87" style="edgeStyle=orthogonalEdgeStyle;rounded=0;orthogonalLoop=1;jettySize=auto;html=1;entryX=0;entryY=0.25;entryDx=0;entryDy=0;jumpStyle=arc;fillColor=#647687;strokeColor=#314354;" parent="1" source="4kvXDWAPBxVA_NMJ1HBV-27" target="4kvXDWAPBxVA_NMJ1HBV-36" edge="1">
          <mxGeometry relative="1" as="geometry">
            <Array as="points">
              <mxPoint x="790" y="780" />
              <mxPoint x="790" y="965" />
            </Array>
          </mxGeometry>
        </mxCell>
        <mxCell id="4kvXDWAPBxVA_NMJ1HBV-88" style="edgeStyle=orthogonalEdgeStyle;rounded=0;orthogonalLoop=1;jettySize=auto;html=1;entryX=0;entryY=0.75;entryDx=0;entryDy=0;jumpStyle=arc;fillColor=#647687;strokeColor=#314354;" parent="1" source="4kvXDWAPBxVA_NMJ1HBV-28" target="4kvXDWAPBxVA_NMJ1HBV-36" edge="1">
          <mxGeometry relative="1" as="geometry">
            <Array as="points">
              <mxPoint x="810" y="890" />
              <mxPoint x="810" y="995" />
            </Array>
          </mxGeometry>
        </mxCell>
        <mxCell id="XGP6w65IYmNDbE1TMmtb-2" style="edgeStyle=orthogonalEdgeStyle;rounded=0;orthogonalLoop=1;jettySize=auto;html=1;entryX=0;entryY=0.5;entryDx=0;entryDy=0;jumpStyle=arc;fillColor=#647687;strokeColor=#314354;" parent="1" source="4kvXDWAPBxVA_NMJ1HBV-29" target="4kvXDWAPBxVA_NMJ1HBV-43" edge="1">
          <mxGeometry relative="1" as="geometry">
            <Array as="points">
              <mxPoint x="700" y="1070" />
              <mxPoint x="1000" y="1070" />
              <mxPoint x="1000" y="980" />
            </Array>
          </mxGeometry>
        </mxCell>
        <mxCell id="4kvXDWAPBxVA_NMJ1HBV-89" style="edgeStyle=orthogonalEdgeStyle;rounded=0;orthogonalLoop=1;jettySize=auto;html=1;fillColor=#e3c800;strokeColor=#B09500;jumpStyle=arc;entryX=0;entryY=0.5;entryDx=0;entryDy=0;" parent="1" source="4kvXDWAPBxVA_NMJ1HBV-31" target="4kvXDWAPBxVA_NMJ1HBV-38" edge="1">
          <mxGeometry relative="1" as="geometry">
            <Array as="points">
              <mxPoint x="1030" y="430" />
              <mxPoint x="1030" y="430" />
            </Array>
            <mxPoint x="1030" y="370" as="targetPoint" />
          </mxGeometry>
        </mxCell>
        <mxCell id="4kvXDWAPBxVA_NMJ1HBV-93" style="edgeStyle=orthogonalEdgeStyle;rounded=0;orthogonalLoop=1;jettySize=auto;html=1;entryX=0;entryY=0.5;entryDx=0;entryDy=0;fillColor=#e3c800;strokeColor=#B09500;jumpStyle=arc;exitX=1;exitY=0.25;exitDx=0;exitDy=0;" parent="1" source="4kvXDWAPBxVA_NMJ1HBV-31" target="4kvXDWAPBxVA_NMJ1HBV-37" edge="1">
          <mxGeometry relative="1" as="geometry">
            <Array as="points">
              <mxPoint x="1000" y="415" />
              <mxPoint x="1000" y="320" />
            </Array>
          </mxGeometry>
        </mxCell>
        <mxCell id="4kvXDWAPBxVA_NMJ1HBV-94" style="edgeStyle=orthogonalEdgeStyle;rounded=0;orthogonalLoop=1;jettySize=auto;html=1;entryX=0;entryY=0.5;entryDx=0;entryDy=0;fillColor=#e3c800;strokeColor=#B09500;jumpStyle=arc;" parent="1" source="4kvXDWAPBxVA_NMJ1HBV-31" target="4kvXDWAPBxVA_NMJ1HBV-39" edge="1">
          <mxGeometry relative="1" as="geometry">
            <Array as="points">
              <mxPoint x="1000" y="450" />
              <mxPoint x="1000" y="540" />
            </Array>
          </mxGeometry>
        </mxCell>
        <mxCell id="4kvXDWAPBxVA_NMJ1HBV-95" style="edgeStyle=orthogonalEdgeStyle;rounded=0;orthogonalLoop=1;jettySize=auto;html=1;entryX=0;entryY=0.5;entryDx=0;entryDy=0;fillColor=#e3c800;strokeColor=#B09500;jumpStyle=arc;" parent="1" source="4kvXDWAPBxVA_NMJ1HBV-33" target="4kvXDWAPBxVA_NMJ1HBV-46" edge="1">
          <mxGeometry relative="1" as="geometry">
            <Array as="points">
              <mxPoint x="900" y="700" />
              <mxPoint x="1170" y="700" />
              <mxPoint x="1170" y="550" />
            </Array>
          </mxGeometry>
        </mxCell>
        <mxCell id="4kvXDWAPBxVA_NMJ1HBV-105" style="edgeStyle=orthogonalEdgeStyle;rounded=0;orthogonalLoop=1;jettySize=auto;html=1;entryX=0;entryY=0.5;entryDx=0;entryDy=0;fillColor=#e3c800;strokeColor=#B09500;jumpStyle=arc;" parent="1" source="4kvXDWAPBxVA_NMJ1HBV-34" target="4kvXDWAPBxVA_NMJ1HBV-41" edge="1">
          <mxGeometry relative="1" as="geometry" />
        </mxCell>
        <mxCell id="4kvXDWAPBxVA_NMJ1HBV-96" style="edgeStyle=orthogonalEdgeStyle;rounded=0;orthogonalLoop=1;jettySize=auto;html=1;entryX=0;entryY=0.5;entryDx=0;entryDy=0;fillColor=#e3c800;strokeColor=#B09500;jumpStyle=arc;" parent="1" source="4kvXDWAPBxVA_NMJ1HBV-36" target="4kvXDWAPBxVA_NMJ1HBV-50" edge="1">
          <mxGeometry relative="1" as="geometry">
            <Array as="points">
              <mxPoint x="900" y="1030" />
              <mxPoint x="1200" y="1030" />
              <mxPoint x="1200" y="980" />
            </Array>
          </mxGeometry>
        </mxCell>
        <mxCell id="4kvXDWAPBxVA_NMJ1HBV-101" style="edgeStyle=orthogonalEdgeStyle;rounded=0;orthogonalLoop=1;jettySize=auto;html=1;entryX=0;entryY=0.5;entryDx=0;entryDy=0;jumpStyle=arc;fillColor=#76608a;strokeColor=#432D57;" parent="1" source="4kvXDWAPBxVA_NMJ1HBV-38" target="4kvXDWAPBxVA_NMJ1HBV-51" edge="1">
          <mxGeometry relative="1" as="geometry">
            <Array as="points">
              <mxPoint x="1220" y="420" />
              <mxPoint x="1220" y="370" />
              <mxPoint x="1400" y="370" />
              <mxPoint x="1400" y="320" />
            </Array>
          </mxGeometry>
        </mxCell>
        <mxCell id="4kvXDWAPBxVA_NMJ1HBV-104" style="edgeStyle=orthogonalEdgeStyle;rounded=0;orthogonalLoop=1;jettySize=auto;html=1;entryX=0;entryY=0.5;entryDx=0;entryDy=0;fillColor=#76608a;strokeColor=#432D57;jumpStyle=arc;" parent="1" source="4kvXDWAPBxVA_NMJ1HBV-38" target="4kvXDWAPBxVA_NMJ1HBV-44" edge="1">
          <mxGeometry relative="1" as="geometry">
            <Array as="points">
              <mxPoint x="1200" y="440" />
              <mxPoint x="1200" y="320" />
            </Array>
          </mxGeometry>
        </mxCell>
        <mxCell id="4kvXDWAPBxVA_NMJ1HBV-100" style="edgeStyle=orthogonalEdgeStyle;rounded=0;orthogonalLoop=1;jettySize=auto;html=1;entryX=0.5;entryY=1;entryDx=0;entryDy=0;fillColor=#76608a;strokeColor=#432D57;jumpStyle=arc;" parent="1" source="4kvXDWAPBxVA_NMJ1HBV-39" target="4kvXDWAPBxVA_NMJ1HBV-45" edge="1">
          <mxGeometry relative="1" as="geometry">
            <Array as="points">
              <mxPoint x="1200" y="540" />
              <mxPoint x="1200" y="480" />
              <mxPoint x="1300" y="480" />
            </Array>
          </mxGeometry>
        </mxCell>
        <mxCell id="4kvXDWAPBxVA_NMJ1HBV-99" style="edgeStyle=orthogonalEdgeStyle;rounded=0;orthogonalLoop=1;jettySize=auto;html=1;entryX=0;entryY=0.5;entryDx=0;entryDy=0;fillColor=#76608a;strokeColor=#432D57;jumpStyle=arc;" parent="1" source="4kvXDWAPBxVA_NMJ1HBV-42" target="4kvXDWAPBxVA_NMJ1HBV-48" edge="1">
          <mxGeometry relative="1" as="geometry" />
        </mxCell>
        <mxCell id="4kvXDWAPBxVA_NMJ1HBV-97" style="edgeStyle=orthogonalEdgeStyle;rounded=0;orthogonalLoop=1;jettySize=auto;html=1;fillColor=#76608a;strokeColor=#432D57;jumpStyle=arc;entryX=0;entryY=0.75;entryDx=0;entryDy=0;" parent="1" source="4kvXDWAPBxVA_NMJ1HBV-43" target="4kvXDWAPBxVA_NMJ1HBV-49" edge="1">
          <mxGeometry relative="1" as="geometry">
            <mxPoint x="1240" y="900" as="targetPoint" />
            <Array as="points">
              <mxPoint x="1190" y="990" />
              <mxPoint x="1190" y="885" />
            </Array>
          </mxGeometry>
        </mxCell>
        <mxCell id="4kvXDWAPBxVA_NMJ1HBV-102" style="edgeStyle=orthogonalEdgeStyle;rounded=0;orthogonalLoop=1;jettySize=auto;html=1;entryX=0;entryY=0.5;entryDx=0;entryDy=0;fillColor=#d80073;strokeColor=#A50040;" parent="1" source="4kvXDWAPBxVA_NMJ1HBV-46" target="4kvXDWAPBxVA_NMJ1HBV-52" edge="1">
          <mxGeometry relative="1" as="geometry" />
        </mxCell>
        <mxCell id="4kvXDWAPBxVA_NMJ1HBV-103" style="edgeStyle=orthogonalEdgeStyle;rounded=0;orthogonalLoop=1;jettySize=auto;html=1;entryX=0;entryY=0.5;entryDx=0;entryDy=0;fillColor=#d80073;strokeColor=#A50040;" parent="1" source="4kvXDWAPBxVA_NMJ1HBV-48" target="4kvXDWAPBxVA_NMJ1HBV-54" edge="1">
          <mxGeometry relative="1" as="geometry" />
        </mxCell>
        <mxCell id="XGP6w65IYmNDbE1TMmtb-12" value="&lt;div&gt;8Â° Semestre&lt;/div&gt;" style="text;strokeColor=none;align=center;fillColor=none;html=1;verticalAlign=middle;whiteSpace=wrap;rounded=0;" parent="1" vertex="1">
          <mxGeometry x="1470" y="250" width="60" height="30" as="geometry" />
        </mxCell>
        <mxCell id="XGP6w65IYmNDbE1TMmtb-13" value="" style="group" parent="1" vertex="1" connectable="0">
          <mxGeometry x="40" y="250" width="120" height="760" as="geometry" />
        </mxCell>
        <mxCell id="XGP6w65IYmNDbE1TMmtb-5" value="1Â° Semestre" style="text;strokeColor=none;align=center;fillColor=none;html=1;verticalAlign=middle;whiteSpace=wrap;rounded=0;" parent="XGP6w65IYmNDbE1TMmtb-13" vertex="1">
          <mxGeometry x="30" width="60" height="30" as="geometry" />
        </mxCell>
        <mxCell id="4kvXDWAPBxVA_NMJ1HBV-2" value="Fundamentos da MatemÃ¡tica" style="rounded=1;whiteSpace=wrap;html=1;glass=1;shadow=0;fillColor=#d5e8d4;strokeColor=#82b366;gradientColor=#97d077;" parent="XGP6w65IYmNDbE1TMmtb-13" vertex="1">
          <mxGeometry y="40" width="120" height="60" as="geometry" />
        </mxCell>
        <mxCell id="4kvXDWAPBxVA_NMJ1HBV-3" value="Desenho TÃ©cnico em Ambiente Computacional" style="rounded=1;whiteSpace=wrap;html=1;glass=1;fillColor=#d5e8d4;strokeColor=#82b366;gradientColor=#97d077;" parent="XGP6w65IYmNDbE1TMmtb-13" vertex="1">
          <mxGeometry y="150" width="120" height="60" as="geometry" />
        </mxCell>
        <mxCell id="4kvXDWAPBxVA_NMJ1HBV-4" value="CÃ¡lculo Vetorial e Geometria AnalÃ­tica" style="rounded=1;whiteSpace=wrap;html=1;glass=1;fillColor=#d5e8d4;strokeColor=#82b366;gradientColor=#97d077;" parent="XGP6w65IYmNDbE1TMmtb-13" vertex="1">
          <mxGeometry y="260" width="120" height="60" as="geometry" />
        </mxCell>
        <mxCell id="4kvXDWAPBxVA_NMJ1HBV-5" value="&lt;div&gt;QuÃ­mica Geral e CiÃªncia dos Materiais&lt;/div&gt;" style="rounded=1;whiteSpace=wrap;html=1;glass=1;fillColor=#d5e8d4;strokeColor=#82b366;gradientColor=#97d077;" parent="XGP6w65IYmNDbE1TMmtb-13" vertex="1">
          <mxGeometry y="370" width="120" height="60" as="geometry" />
        </mxCell>
        <mxCell id="4kvXDWAPBxVA_NMJ1HBV-6" value="IntroduÃ§Ã£o Ã  Engenharia da ComputaÃ§Ã£o" style="rounded=1;whiteSpace=wrap;html=1;glass=1;fillColor=#d5e8d4;strokeColor=#82b366;gradientColor=#97d077;" parent="XGP6w65IYmNDbE1TMmtb-13" vertex="1">
          <mxGeometry y="480" width="120" height="60" as="geometry" />
        </mxCell>
        <mxCell id="4kvXDWAPBxVA_NMJ1HBV-7" value="Algoritmos I" style="rounded=1;whiteSpace=wrap;html=1;glass=1;fillColor=#d5e8d4;strokeColor=#82b366;gradientColor=#97d077;" parent="XGP6w65IYmNDbE1TMmtb-13" vertex="1">
          <mxGeometry y="590" width="120" height="60" as="geometry" />
        </mxCell>
        <mxCell id="4kvXDWAPBxVA_NMJ1HBV-8" value="Economia" style="rounded=1;whiteSpace=wrap;html=1;glass=1;" parent="XGP6w65IYmNDbE1TMmtb-13" vertex="1">
          <mxGeometry y="700" width="120" height="60" as="geometry" />
        </mxCell>
        <mxCell id="XGP6w65IYmNDbE1TMmtb-14" value="" style="group" parent="1" vertex="1" connectable="0">
          <mxGeometry x="240" y="250" width="120" height="760" as="geometry" />
        </mxCell>
        <mxCell id="4kvXDWAPBxVA_NMJ1HBV-9" value="&lt;div&gt;CÃ¡lculo Diferencial e Integral I&lt;/div&gt;" style="rounded=1;whiteSpace=wrap;html=1;glass=1;fillColor=#d5e8d4;strokeColor=#82b366;gradientColor=#97d077;" parent="XGP6w65IYmNDbE1TMmtb-14" vertex="1">
          <mxGeometry y="40" width="120" height="60" as="geometry" />
        </mxCell>
        <mxCell id="4kvXDWAPBxVA_NMJ1HBV-10" value="&lt;div&gt;FÃ­sica Geral e Experimental I&lt;/div&gt;" style="rounded=1;whiteSpace=wrap;html=1;glass=1;fillColor=#d5e8d4;strokeColor=#82b366;gradientColor=#97d077;" parent="XGP6w65IYmNDbE1TMmtb-14" vertex="1">
          <mxGeometry y="150" width="120" height="60" as="geometry" />
        </mxCell>
        <mxCell id="4kvXDWAPBxVA_NMJ1HBV-11" value="Ãlgebra Linear" style="rounded=1;whiteSpace=wrap;html=1;glass=1;fillColor=#d5e8d4;strokeColor=#82b366;gradientColor=#97d077;" parent="XGP6w65IYmNDbE1TMmtb-14" vertex="1">
          <mxGeometry y="260" width="120" height="60" as="geometry" />
        </mxCell>
        <mxCell id="4kvXDWAPBxVA_NMJ1HBV-12" value="Metodologia CientÃ­fica" style="rounded=1;whiteSpace=wrap;html=1;glass=1;fillColor=#d5e8d4;strokeColor=#82b366;gradientColor=#97d077;" parent="XGP6w65IYmNDbE1TMmtb-14" vertex="1">
          <mxGeometry y="370" width="120" height="60" as="geometry" />
        </mxCell>
        <mxCell id="4kvXDWAPBxVA_NMJ1HBV-13" value="Arquitetura e OrganizaÃ§Ã£o de Computadores" style="rounded=1;whiteSpace=wrap;html=1;glass=1;fillColor=#d5e8d4;strokeColor=#82b366;gradientColor=#97d077;" parent="XGP6w65IYmNDbE1TMmtb-14" vertex="1">
          <mxGeometry y="480" width="120" height="60" as="geometry" />
        </mxCell>
        <mxCell id="4kvXDWAPBxVA_NMJ1HBV-14" value="&lt;div&gt;Algoritmos II&lt;/div&gt;" style="rounded=1;whiteSpace=wrap;html=1;glass=1;fillColor=#d5e8d4;strokeColor=#82b366;gradientColor=#97d077;" parent="XGP6w65IYmNDbE1TMmtb-14" vertex="1">
          <mxGeometry y="590" width="120" height="60" as="geometry" />
        </mxCell>
        <mxCell id="4kvXDWAPBxVA_NMJ1HBV-15" value="CiÃªncia do Ambiente" style="rounded=1;whiteSpace=wrap;html=1;glass=1;" parent="XGP6w65IYmNDbE1TMmtb-14" vertex="1">
          <mxGeometry y="700" width="120" height="60" as="geometry" />
        </mxCell>
        <mxCell id="XGP6w65IYmNDbE1TMmtb-6" value="2Â° Semestre" style="text;strokeColor=none;align=center;fillColor=none;html=1;verticalAlign=middle;whiteSpace=wrap;rounded=0;" parent="XGP6w65IYmNDbE1TMmtb-14" vertex="1">
          <mxGeometry x="30" width="60" height="30" as="geometry" />
        </mxCell>
        <mxCell id="XGP6w65IYmNDbE1TMmtb-15" value="" style="group" parent="1" vertex="1" connectable="0">
          <mxGeometry x="440" y="250" width="120" height="760" as="geometry" />
        </mxCell>
        <mxCell id="4kvXDWAPBxVA_NMJ1HBV-16" value="&lt;div&gt;FÃ­sica Geral e Experimental II&lt;/div&gt;" style="rounded=1;whiteSpace=wrap;html=1;glass=1;fillColor=#d5e8d4;strokeColor=#82b366;gradientColor=#97d077;" parent="XGP6w65IYmNDbE1TMmtb-15" vertex="1">
          <mxGeometry y="150" width="120" height="60" as="geometry" />
        </mxCell>
        <mxCell id="4kvXDWAPBxVA_NMJ1HBV-17" value="EletrÃ´nica Digital" style="rounded=1;whiteSpace=wrap;html=1;glass=1;fillColor=#d5e8d4;strokeColor=#82b366;gradientColor=#97d077;" parent="XGP6w65IYmNDbE1TMmtb-15" vertex="1">
          <mxGeometry y="260" width="120" height="60" as="geometry" />
        </mxCell>
        <mxCell id="4kvXDWAPBxVA_NMJ1HBV-18" value="IntroduÃ§Ã£o Ã  ExtensÃ£o" style="rounded=1;whiteSpace=wrap;html=1;glass=1;fillColor=#d5e8d4;strokeColor=#82b366;gradientColor=#97d077;" parent="XGP6w65IYmNDbE1TMmtb-15" vertex="1">
          <mxGeometry y="370" width="120" height="60" as="geometry" />
        </mxCell>
        <mxCell id="4kvXDWAPBxVA_NMJ1HBV-19" value="Sistemas Operacionais" style="rounded=1;whiteSpace=wrap;html=1;glass=1;fillColor=#d5e8d4;strokeColor=#82b366;gradientColor=#97d077;" parent="XGP6w65IYmNDbE1TMmtb-15" vertex="1">
          <mxGeometry y="480" width="120" height="60" as="geometry" />
        </mxCell>
        <mxCell id="4kvXDWAPBxVA_NMJ1HBV-20" value="Estrutura de Dados" style="rounded=1;whiteSpace=wrap;html=1;glass=1;fillColor=#d5e8d4;strokeColor=#82b366;gradientColor=#97d077;" parent="XGP6w65IYmNDbE1TMmtb-15" vertex="1">
          <mxGeometry y="590" width="120" height="60" as="geometry" />
        </mxCell>
        <mxCell id="4kvXDWAPBxVA_NMJ1HBV-21" value="Probabilidade e EstatÃ­stica Computacional" style="rounded=1;whiteSpace=wrap;html=1;glass=1;fillColor=#d5e8d4;strokeColor=#82b366;gradientColor=#97d077;" parent="XGP6w65IYmNDbE1TMmtb-15" vertex="1">
          <mxGeometry y="700" width="120" height="60" as="geometry" />
        </mxCell>
        <mxCell id="4kvXDWAPBxVA_NMJ1HBV-22" value="&lt;div&gt;CÃ¡lculo Diferencial e Integral II&lt;/div&gt;" style="rounded=1;whiteSpace=wrap;html=1;glass=1;fillColor=#d5e8d4;strokeColor=#82b366;gradientColor=#97d077;" parent="XGP6w65IYmNDbE1TMmtb-15" vertex="1">
          <mxGeometry y="40" width="120" height="60" as="geometry" />
        </mxCell>
        <mxCell id="XGP6w65IYmNDbE1TMmtb-7" value="3Â° Semestre" style="text;strokeColor=none;align=center;fillColor=none;html=1;verticalAlign=middle;whiteSpace=wrap;rounded=0;" parent="XGP6w65IYmNDbE1TMmtb-15" vertex="1">
          <mxGeometry x="30" width="60" height="30" as="geometry" />
        </mxCell>
        <mxCell id="XGP6w65IYmNDbE1TMmtb-16" value="" style="group" parent="1" vertex="1" connectable="0">
          <mxGeometry x="640" y="250" width="120" height="760" as="geometry" />
        </mxCell>
        <mxCell id="4kvXDWAPBxVA_NMJ1HBV-23" value="EquaÃ§Ãµes Diferenciais" style="rounded=1;whiteSpace=wrap;html=1;glass=1;fillColor=#dae8fc;gradientColor=#7ea6e0;strokeColor=#6c8ebf;" parent="XGP6w65IYmNDbE1TMmtb-16" vertex="1">
          <mxGeometry y="40" width="120" height="60" as="geometry" />
        </mxCell>
        <mxCell id="4kvXDWAPBxVA_NMJ1HBV-24" value="&lt;div&gt;FÃ­sica Geral e Experimental III&lt;/div&gt;" style="rounded=1;whiteSpace=wrap;html=1;glass=1;fillColor=#d5e8d4;strokeColor=#82b366;gradientColor=#97d077;" parent="XGP6w65IYmNDbE1TMmtb-16" vertex="1">
          <mxGeometry y="150" width="120" height="60" as="geometry" />
        </mxCell>
        <mxCell id="4kvXDWAPBxVA_NMJ1HBV-25" value="CÃ¡lculo NumÃ©rico" style="rounded=1;whiteSpace=wrap;html=1;glass=1;" parent="XGP6w65IYmNDbE1TMmtb-16" vertex="1">
          <mxGeometry y="260" width="120" height="60" as="geometry" />
        </mxCell>
        <mxCell id="4kvXDWAPBxVA_NMJ1HBV-26" value="Banco de Dados" style="rounded=1;whiteSpace=wrap;html=1;glass=1;fillColor=#d5e8d4;strokeColor=#82b366;gradientColor=#97d077;" parent="XGP6w65IYmNDbE1TMmtb-16" vertex="1">
          <mxGeometry y="370" width="120" height="60" as="geometry" />
        </mxCell>
        <mxCell id="4kvXDWAPBxVA_NMJ1HBV-27" value="ProgramaÃ§Ã£o Orientada a Objetos" style="rounded=1;whiteSpace=wrap;html=1;glass=1;fillColor=#d5e8d4;strokeColor=#82b366;gradientColor=#97d077;" parent="XGP6w65IYmNDbE1TMmtb-16" vertex="1">
          <mxGeometry y="480" width="120" height="60" as="geometry" />
        </mxCell>
        <mxCell id="4kvXDWAPBxVA_NMJ1HBV-28" value="MatemÃ¡tica Discreta e Teoria dos Grafos" style="rounded=1;whiteSpace=wrap;html=1;glass=1;fillColor=#d5e8d4;strokeColor=#82b366;gradientColor=#97d077;" parent="XGP6w65IYmNDbE1TMmtb-16" vertex="1">
          <mxGeometry y="590" width="120" height="60" as="geometry" />
        </mxCell>
        <mxCell id="4kvXDWAPBxVA_NMJ1HBV-29" value="TransmissÃ£o e ComunicaÃ§Ã£o de Dados" style="rounded=1;whiteSpace=wrap;html=1;glass=1;fillColor=#dae8fc;gradientColor=#7ea6e0;strokeColor=#6c8ebf;" parent="XGP6w65IYmNDbE1TMmtb-16" vertex="1">
          <mxGeometry y="700" width="120" height="60" as="geometry" />
        </mxCell>
        <mxCell id="XGP6w65IYmNDbE1TMmtb-8" value="4Â° Semestre" style="text;strokeColor=none;align=center;fillColor=none;html=1;verticalAlign=middle;whiteSpace=wrap;rounded=0;" parent="XGP6w65IYmNDbE1TMmtb-16" vertex="1">
          <mxGeometry x="30" width="60" height="30" as="geometry" />
        </mxCell>
        <mxCell id="XGP6w65IYmNDbE1TMmtb-17" value="" style="group" parent="1" vertex="1" connectable="0">
          <mxGeometry x="840" y="250" width="120" height="760" as="geometry" />
        </mxCell>
        <mxCell id="4kvXDWAPBxVA_NMJ1HBV-30" value="Ãtica Profissional" style="rounded=1;whiteSpace=wrap;html=1;glass=1;" parent="XGP6w65IYmNDbE1TMmtb-17" vertex="1">
          <mxGeometry y="40" width="120" height="60" as="geometry" />
        </mxCell>
        <mxCell id="4kvXDWAPBxVA_NMJ1HBV-31" value="Circuitos ElÃ©tricos I" style="rounded=1;whiteSpace=wrap;html=1;glass=1;fillColor=#dae8fc;gradientColor=#7ea6e0;strokeColor=#6c8ebf;" parent="XGP6w65IYmNDbE1TMmtb-17" vertex="1">
          <mxGeometry y="150" width="120" height="60" as="geometry" />
        </mxCell>
        <mxCell id="4kvXDWAPBxVA_NMJ1HBV-32" value="LaboratÃ³rio de Circuitos ElÃ©tricos I" style="rounded=1;whiteSpace=wrap;html=1;glass=1;" parent="XGP6w65IYmNDbE1TMmtb-17" vertex="1">
          <mxGeometry y="260" width="120" height="60" as="geometry" />
        </mxCell>
        <mxCell id="4kvXDWAPBxVA_NMJ1HBV-33" value="ExtensÃ£o I" style="rounded=1;whiteSpace=wrap;html=1;glass=1;fillColor=#dae8fc;gradientColor=#7ea6e0;strokeColor=#6c8ebf;" parent="XGP6w65IYmNDbE1TMmtb-17" vertex="1">
          <mxGeometry y="370" width="120" height="60" as="geometry" />
        </mxCell>
        <mxCell id="4kvXDWAPBxVA_NMJ1HBV-34" value="Engenharia de Software" style="rounded=1;whiteSpace=wrap;html=1;glass=1;" parent="XGP6w65IYmNDbE1TMmtb-17" vertex="1">
          <mxGeometry y="480" width="120" height="60" as="geometry" />
        </mxCell>
        <mxCell id="4kvXDWAPBxVA_NMJ1HBV-35" value="ProgramaÃ§Ã£o Web" style="rounded=1;whiteSpace=wrap;html=1;glass=1;" parent="XGP6w65IYmNDbE1TMmtb-17" vertex="1">
          <mxGeometry y="590" width="120" height="60" as="geometry" />
        </mxCell>
        <mxCell id="4kvXDWAPBxVA_NMJ1HBV-36" value="Compiladores" style="rounded=1;whiteSpace=wrap;html=1;glass=1;fillColor=#dae8fc;gradientColor=#7ea6e0;strokeColor=#6c8ebf;" parent="XGP6w65IYmNDbE1TMmtb-17" vertex="1">
          <mxGeometry y="700" width="120" height="60" as="geometry" />
        </mxCell>
        <mxCell id="XGP6w65IYmNDbE1TMmtb-9" value="5Â° Semestre" style="text;strokeColor=none;align=center;fillColor=none;html=1;verticalAlign=middle;whiteSpace=wrap;rounded=0;" parent="XGP6w65IYmNDbE1TMmtb-17" vertex="1">
          <mxGeometry x="30" width="60" height="30" as="geometry" />
        </mxCell>
        <mxCell id="XGP6w65IYmNDbE1TMmtb-18" value="" style="group" parent="1" vertex="1" connectable="0">
          <mxGeometry x="1040" y="250" width="120" height="760" as="geometry" />
        </mxCell>
        <mxCell id="4kvXDWAPBxVA_NMJ1HBV-37" value="LaboratÃ³rio de Circuitos ElÃ©tricos II" style="rounded=1;whiteSpace=wrap;html=1;glass=1;" parent="XGP6w65IYmNDbE1TMmtb-18" vertex="1">
          <mxGeometry y="40" width="120" height="60" as="geometry" />
        </mxCell>
        <mxCell id="4kvXDWAPBxVA_NMJ1HBV-38" value="Sinais e Sistemas Lineares" style="rounded=1;whiteSpace=wrap;html=1;glass=1;" parent="XGP6w65IYmNDbE1TMmtb-18" vertex="1">
          <mxGeometry y="150" width="120" height="60" as="geometry" />
        </mxCell>
        <mxCell id="4kvXDWAPBxVA_NMJ1HBV-39" value="Circuitos ElÃ©tricos II" style="rounded=1;whiteSpace=wrap;html=1;glass=1;" parent="XGP6w65IYmNDbE1TMmtb-18" vertex="1">
          <mxGeometry y="260" width="120" height="60" as="geometry" />
        </mxCell>
        <mxCell id="4kvXDWAPBxVA_NMJ1HBV-40" value="EletrÃ´nica AnalÃ³gica I" style="rounded=1;whiteSpace=wrap;html=1;glass=1;" parent="XGP6w65IYmNDbE1TMmtb-18" vertex="1">
          <mxGeometry y="370" width="120" height="60" as="geometry" />
        </mxCell>
        <mxCell id="4kvXDWAPBxVA_NMJ1HBV-41" value="AnÃ¡lise e Projeto de Sistemas Computacionais" style="rounded=1;whiteSpace=wrap;html=1;glass=1;" parent="XGP6w65IYmNDbE1TMmtb-18" vertex="1">
          <mxGeometry y="480" width="120" height="60" as="geometry" />
        </mxCell>
        <mxCell id="4kvXDWAPBxVA_NMJ1HBV-42" value="InteligÃªncia Artificial" style="rounded=1;whiteSpace=wrap;html=1;glass=1;" parent="XGP6w65IYmNDbE1TMmtb-18" vertex="1">
          <mxGeometry y="590" width="120" height="60" as="geometry" />
        </mxCell>
        <mxCell id="4kvXDWAPBxVA_NMJ1HBV-43" value="Redes de Computadores" style="rounded=1;whiteSpace=wrap;html=1;glass=1;" parent="XGP6w65IYmNDbE1TMmtb-18" vertex="1">
          <mxGeometry y="700" width="120" height="60" as="geometry" />
        </mxCell>
        <mxCell id="XGP6w65IYmNDbE1TMmtb-10" value="6Â° Semestre" style="text;strokeColor=none;align=center;fillColor=none;html=1;verticalAlign=middle;whiteSpace=wrap;rounded=0;" parent="XGP6w65IYmNDbE1TMmtb-18" vertex="1">
          <mxGeometry x="30" width="60" height="30" as="geometry" />
        </mxCell>
        <mxCell id="XGP6w65IYmNDbE1TMmtb-19" value="" style="group" parent="1" vertex="1" connectable="0">
          <mxGeometry x="1240.5" y="250" width="120.5" height="760" as="geometry" />
        </mxCell>
        <mxCell id="4kvXDWAPBxVA_NMJ1HBV-44" value="Controle de Sistemas ContÃ­nuos I" style="rounded=1;whiteSpace=wrap;html=1;glass=1;" parent="XGP6w65IYmNDbE1TMmtb-19" vertex="1">
          <mxGeometry x="0.5" y="40" width="120" height="60" as="geometry" />
        </mxCell>
        <mxCell id="4kvXDWAPBxVA_NMJ1HBV-45" value="Microcontroladores" style="rounded=1;whiteSpace=wrap;html=1;glass=1;" parent="XGP6w65IYmNDbE1TMmtb-19" vertex="1">
          <mxGeometry y="150" width="120" height="60" as="geometry" />
        </mxCell>
        <mxCell id="4kvXDWAPBxVA_NMJ1HBV-46" value="ExtensÃ£o II" style="rounded=1;whiteSpace=wrap;html=1;glass=1;" parent="XGP6w65IYmNDbE1TMmtb-19" vertex="1">
          <mxGeometry y="270" width="120" height="60" as="geometry" />
        </mxCell>
        <mxCell id="4kvXDWAPBxVA_NMJ1HBV-47" value="SeguranÃ§a do Trabalho" style="rounded=1;whiteSpace=wrap;html=1;glass=1;" parent="XGP6w65IYmNDbE1TMmtb-19" vertex="1">
          <mxGeometry x="0.5" y="380" width="120" height="60" as="geometry" />
        </mxCell>
        <mxCell id="4kvXDWAPBxVA_NMJ1HBV-48" value="MineraÃ§Ã£o de Dados" style="rounded=1;whiteSpace=wrap;html=1;glass=1;" parent="XGP6w65IYmNDbE1TMmtb-19" vertex="1">
          <mxGeometry x="0.5" y="480" width="120" height="60" as="geometry" />
        </mxCell>
        <mxCell id="4kvXDWAPBxVA_NMJ1HBV-49" value="SeguranÃ§a de Sistemas de ComputaÃ§Ã£o" style="rounded=1;whiteSpace=wrap;html=1;glass=1;" parent="XGP6w65IYmNDbE1TMmtb-19" vertex="1">
          <mxGeometry x="0.5" y="590" width="120" height="60" as="geometry" />
        </mxCell>
        <mxCell id="4kvXDWAPBxVA_NMJ1HBV-50" value="EletrÃ´nica AnalÃ³gica II" style="rounded=1;whiteSpace=wrap;html=1;glass=1;" parent="XGP6w65IYmNDbE1TMmtb-19" vertex="1">
          <mxGeometry x="0.5" y="700" width="120" height="60" as="geometry" />
        </mxCell>
        <mxCell id="XGP6w65IYmNDbE1TMmtb-11" value="7Â° Semestre" style="text;strokeColor=none;align=center;fillColor=none;html=1;verticalAlign=middle;whiteSpace=wrap;rounded=0;" parent="XGP6w65IYmNDbE1TMmtb-19" vertex="1">
          <mxGeometry x="30" width="60" height="30" as="geometry" />
        </mxCell>
        <mxCell id="XGP6w65IYmNDbE1TMmtb-20" value="" style="group" parent="1" vertex="1" connectable="0">
          <mxGeometry x="1440" y="290" width="120" height="610" as="geometry" />
        </mxCell>
        <mxCell id="4kvXDWAPBxVA_NMJ1HBV-51" value="Processamento Digital de Sinais" style="rounded=1;whiteSpace=wrap;html=1;glass=1;" parent="XGP6w65IYmNDbE1TMmtb-20" vertex="1">
          <mxGeometry width="120" height="60" as="geometry" />
        </mxCell>
        <mxCell id="4kvXDWAPBxVA_NMJ1HBV-52" value="Trabalho de ConclusÃ£o do Curso" style="rounded=1;whiteSpace=wrap;html=1;" parent="XGP6w65IYmNDbE1TMmtb-20" vertex="1">
          <mxGeometry y="230" width="120" height="60" as="geometry" />
        </mxCell>
        <mxCell id="4kvXDWAPBxVA_NMJ1HBV-53" value="AdministraÃ§Ã£o" style="rounded=1;whiteSpace=wrap;html=1;glass=1;" parent="XGP6w65IYmNDbE1TMmtb-20" vertex="1">
          <mxGeometry y="340" width="120" height="60" as="geometry" />
        </mxCell>
        <mxCell id="4kvXDWAPBxVA_NMJ1HBV-54" value="Projeto de Sistemas Inteligentes" style="rounded=1;whiteSpace=wrap;html=1;glass=1;" parent="XGP6w65IYmNDbE1TMmtb-20" vertex="1">
          <mxGeometry y="440" width="120" height="60" as="geometry" />
        </mxCell>
        <mxCell id="4kvXDWAPBxVA_NMJ1HBV-55" value="Disciplina Eletiva" style="rounded=1;whiteSpace=wrap;html=1;glass=1;" parent="XGP6w65IYmNDbE1TMmtb-20" vertex="1">
          <mxGeometry y="550" width="120" height="60" as="geometry" />
        </mxCell>
        <mxCell id="XGP6w65IYmNDbE1TMmtb-21" style="edgeStyle=orthogonalEdgeStyle;rounded=0;orthogonalLoop=1;jettySize=auto;html=1;entryX=0;entryY=0.5;entryDx=0;entryDy=0;fillColor=#e51400;strokeColor=#B20000;jumpStyle=arc;" parent="1" source="4kvXDWAPBxVA_NMJ1HBV-17" target="4kvXDWAPBxVA_NMJ1HBV-29" edge="1">
          <mxGeometry relative="1" as="geometry">
            <Array as="points">
              <mxPoint x="590" y="550" />
              <mxPoint x="590" y="980" />
            </Array>
          </mxGeometry>
        </mxCell>
      </root>
    </mxGraphModel>
  </diagram>
</mxfile>
